PathFileType	4	(X/Y/Z)	0_coords_data.trc
DataRate	CameraRate	NumFrames	NumMarkers	Units	OrigDataRate	OrigDataStartFrame	OrigNumFrames
30.0	30.0	5	21	m	30.0	20	57
Frame#	Time	THUMB_TIP	THUMB_IP	THUMB_MCP	THUMB_CMC	INDEX_TIP	INDEX_DIP	INDEX_PIP	INDEX_MCP	MIDDLE_TIP	MIDDLE_DIP	MIDDLE_PIP	MIDDLE_MCP	RING_TIP	RING_DIP	RING_PIP	RING_MCP	PINKY_TIP	PINKY_DIP	PINKY_PIP	PINKY_MCP	WRIST
X1	Y1	Z1	X2	Y2	Z2	X3	Y3	Z3	X4	Y4	Z4	X5	Y5	Z5	X6	Y6	Z6	X7	Y7	Z7	X8	Y8	Z8	X9	Y9	Z9	X10	Y10	Z10	X11	Y11	Z11	X12	Y12	Z12	X13	Y13	Z13	X14	Y14	Z14	X15	Y15	Z15	X16	Y16	Z16	X17	Y17	Z17	X18	Y18	Z18	X19	Y19	Z19	X20	Y20	Z20	X21	Y21	Z21
18	0.6333333333333304	0.4767408930738445	-0.02343668727394832	-0.17132738084560784	0.48326642998566316	-0.024127973502254485	-0.14930603912074814	0.47087571646649373	-0.029713796859806574	-0.12130445352449848	0.4753597146280689	-0.028181610294180093	-0.07694866286741397	0.49721876325577263	-0.01608296866411929	-0.10020869714863062	0.5149493439400858	-0.016656748056352755	-0.10385524151365749	0.5302354467397062	-0.0017614543818319506	-0.11713963538576233	0.49309401270046627	0.01901976783662429	-0.11865316589947184	0.4999658941330084	-0.016215220327254753	-0.08528215292296121	0.5177604214123059	-0.013119387450389874	-0.08661279851997761	0.5374648005566394	0.005370414726048378	-0.09753407170640321	0.5012761045201363	0.031559385826481434	-0.09834892928798988	0.500147482402905	-0.005208345344450582	-0.07217694649055723	0.5180758597567545	-0.0049779730499501795	-0.07030072313927221	0.5380741532284137	0.008968327351618122	-0.0753750647054865	0.5092678552777694	0.037337418706257064	-0.07571075517432108	0.5051759296007234	-0.006183054264514043	-0.05585510178731423	0.5221965219573769	-0.004508630801973612	-0.05515101237770381	0.5361840204825099	0.011141844463807171	-0.05467716855893784	0.5087387990267418	0.03442020731337858	-0.052276940801507576	0.462283081001861	-0.023011742144276925	-0.05198982011943104
19	0.6666666666666637	0.47652651009510016	-0.023333723351809277	-0.17133173520693967	0.483163511388793	-0.02402904270092099	-0.1493438579826537	0.470877060894747	-0.029648343521265996	-0.12130305570190886	0.47537419275180437	-0.02815094228605708	-0.07694740674260453	0.4971488190339455	-0.01601176810133842	-0.10022089438274062	0.5148853468662702	-0.01659536414137408	-0.10383683079191908	0.5302217294299345	-0.001733899503312819	-0.11710114651767711	0.49307173459889486	0.019028831134968227	-0.11865774360617426	0.4999543341912117	-0.01622238826724054	-0.08527820616374271	0.5177449073922283	-0.013095791193848405	-0.08658965418784642	0.5374454894779858	0.005402197168955292	-0.0975039128439309	0.5012466395196344	0.03157600669831295	-0.09835413482298672	0.5001040161978328	-0.005135407978060558	-0.07214989655118936	0.5180350527206005	-0.004954495135215398	-0.07029377161938466	0.5380282787882422	0.009000336261492992	-0.07536462668511257	0.5092198487348902	0.03736688537108723	-0.0757308007886573	0.5051427561279218	-0.006190190503298831	-0.05584023712009428	0.5221608226339959	-0.004489125630355528	-0.05513895922020323	0.5361403938429824	0.01116910530274362	-0.054687947181990715	0.5086980162788223	0.03445300281904362	-0.05230898079371893	0.4622830810018609	-0.023011742144276925	-0.05198982011943093
20	0.6999999999999968	0.4763152876248946	-0.023092061225067906	-0.17132507989931411	0.4830970689203413	-0.02382016741974302	-0.1493824888073303	0.47089187780207864	-0.029511422119761432	-0.12132071891114954	0.47536776200588593	-0.02810645542501844	-0.07695989690365312	0.4970336015618504	-0.01594049079302262	-0.10018864517921999	0.5147739827952363	-0.016561596156776992	-0.10377934174412784	0.5301912891594933	-0.0017818298431416801	-0.11704112914948839	0.4930846935600306	0.01905555388951874	-0.11863489707355734	0.4998844410136887	-0.01614117762659406	-0.08530209543556144	0.5176899546368516	-0.01307078278938878	-0.08654159539886119	0.5374341971092916	0.0053937978571790834	-0.09743350527435585	0.5012577107404089	0.03159731620100148	-0.0983197227459755	0.5000360114503776	-0.0051095283282320825	-0.07213349901101362	0.5179630137648973	-0.0049986257049696725	-0.07023342305901503	0.5379858291234423	0.008917211031161165	-0.07529468101045039	0.5092499561165066	0.03735677174445351	-0.07569695326183079	0.5050802839782124	-0.006256217728392355	-0.05577734184074734	0.5220963212464225	-0.004533191887597154	-0.05508045042966642	0.5361015089044741	0.011102171671120153	-0.054630846104181785	0.5087070622686064	0.03444582191843848	-0.052285267786265965	0.462283081001861	-0.023011742144276925	-0.051989820119430985
21	0.7333333333333302	0.47644530771207494	-0.022885140555691907	-0.17130890562358747	0.48323481885426267	-0.02364419522537542	-0.14936975398870111	0.4709779612028535	-0.029402109129837095	-0.12134412521820065	0.47535872636189425	-0.028072763304582193	-0.07697147895613726	0.4968661688495005	-0.01600385464541687	-0.10007662226621283	0.5145942138252708	-0.01657709914596206	-0.10373555818798874	0.530137394106459	-0.001943089660437991	-0.11701204665911996	0.4931244522289625	0.01905957880380016	-0.11861396580638162	0.49980766867378623	-0.016154088157367852	-0.08530519660241515	0.5176145458090788	-0.013088338222692397	-0.0865365795755908	0.5374424935028617	0.005298699697037446	-0.09740759042054159	0.5013239035070496	0.03158237350927284	-0.09828158621368582	0.49998525961847795	-0.005129660985143558	-0.07216375157720861	0.5179070080784323	-0.005114932759889168	-0.07021164624769805	0.5379950041435613	0.008715722126166114	-0.07524805156401271	0.5093772828600553	0.03727411009349213	-0.07565467085434008	0.5050263598059218	-0.006409359223228717	-0.05570526297017553	0.5220446923157112	-0.004685802245227411	-0.05506830933777229	0.5361357144969681	0.010871954464574007	-0.05460861482404644	0.5088448594251455	0.03433442299091338	-0.05224107367354813	0.4622830810018609	-0.023011742144276925	-0.051989820119430985
22	0.7666666666666633	0.47709135023226856	-0.022857515336266565	-0.1713075867549989	0.48364529888081786	-0.023607822680886237	-0.14929661685358864	0.4711623984368486	-0.029367840305308257	-0.12137137032876272	0.47535405178964896	-0.028040725213035578	-0.07698039368145504	0.4965578453253743	-0.016134090333739692	-0.09996554121534978	0.5142754445762002	-0.016593550434287008	-0.10369053426274383	0.5300237286885678	-0.002222362253819221	-0.11701233334536498	0.49316419160775193	0.019049295460543236	-0.11860204975748345	0.499606109880373	-0.016145725789117216	-0.08533388030650879	0.5174237750910872	-0.013136600922522002	-0.08654877700011887	0.5374273859192187	0.0050615437704572	-0.09741582046051106	0.5014315015472381	0.03151360582495755	-0.09827176575308133	0.49987184252255823	-0.00512973148714968	-0.07221833543580775	0.5177889060479464	-0.005233439327124612	-0.07022633159265446	0.5380169521859786	0.008390891961595703	-0.07526455800408527	0.5095720623274635	0.03712166509715131	-0.07565410898944253	0.5049415970638756	-0.006480048932598015	-0.05569160803405737	0.5219698097867982	-0.0048379952348142075	-0.05510540745704101	0.5362348402216573	0.010561821558897067	-0.054697279520395714	0.5090650348473846	0.03415496378560634	-0.052237855442604786	0.4622830810018609	-0.023011742144276925	-0.051989820119430985
